<svg width="28" height="28" viewBox="0 0 28 28" fill="none" xmlns="http://www.w3.org/2000/svg">
<path d="M26.1767 28L22.1721 24.0279C21.7814 24.2667 21.3636 24.4457 20.9186 24.5651C20.4736 24.6845 20.0124 24.7442 19.5349 24.7442C18.1023 24.7442 16.876 24.2341 15.8558 23.214C14.8357 22.1938 14.3256 20.9674 14.3256 19.5349C14.3256 18.1023 14.8357 16.876 15.8558 15.8558C16.876 14.8357 18.1023 14.3256 19.5349 14.3256C20.9674 14.3256 22.1938 14.8357 23.214 15.8558C24.2341 16.876 24.7442 18.1023 24.7442 19.5349C24.7442 20.0341 24.6791 20.5062 24.5488 20.9512C24.4186 21.3961 24.2341 21.814 23.9953 22.2047L28 26.1767L26.1767 28ZM5.2093 24.7442C3.77674 24.7442 2.55039 24.2341 1.53023 23.214C0.510078 22.1938 0 20.9674 0 19.5349C0 18.1023 0.510078 16.876 1.53023 15.8558C2.55039 14.8357 3.77674 14.3256 5.2093 14.3256C6.64186 14.3256 7.86822 14.8357 8.88837 15.8558C9.90853 16.876 10.4186 18.1023 10.4186 19.5349C10.4186 20.9674 9.90853 22.1938 8.88837 23.214C7.86822 24.2341 6.64186 24.7442 5.2093 24.7442ZM5.2093 22.1395C5.92558 22.1395 6.53876 21.8845 7.04884 21.3744C7.55891 20.8643 7.81395 20.2512 7.81395 19.5349C7.81395 18.8186 7.55891 18.2054 7.04884 17.6954C6.53876 17.1853 5.92558 16.9302 5.2093 16.9302C4.49302 16.9302 3.87985 17.1853 3.36977 17.6954C2.85969 18.2054 2.60465 18.8186 2.60465 19.5349C2.60465 20.2512 2.85969 20.8643 3.36977 21.3744C3.87985 21.8845 4.49302 22.1395 5.2093 22.1395ZM19.5349 22.1395C20.2512 22.1395 20.8643 21.8845 21.3744 21.3744C21.8845 20.8643 22.1395 20.2512 22.1395 19.5349C22.1395 18.8186 21.8845 18.2054 21.3744 17.6954C20.8643 17.1853 20.2512 16.9302 19.5349 16.9302C18.8186 16.9302 18.2054 17.1853 17.6954 17.6954C17.1853 18.2054 16.9302 18.8186 16.9302 19.5349C16.9302 20.2512 17.1853 20.8643 17.6954 21.3744C18.2054 21.8845 18.8186 22.1395 19.5349 22.1395ZM5.2093 10.4186C3.77674 10.4186 2.55039 9.90853 1.53023 8.88837C0.510078 7.86822 0 6.64186 0 5.2093C0 3.77674 0.510078 2.55039 1.53023 1.53023C2.55039 0.510078 3.77674 0 5.2093 0C6.64186 0 7.86822 0.510078 8.88837 1.53023C9.90853 2.55039 10.4186 3.77674 10.4186 5.2093C10.4186 6.64186 9.90853 7.86822 8.88837 8.88837C7.86822 9.90853 6.64186 10.4186 5.2093 10.4186ZM19.5349 10.4186C18.1023 10.4186 16.876 9.90853 15.8558 8.88837C14.8357 7.86822 14.3256 6.64186 14.3256 5.2093C14.3256 3.77674 14.8357 2.55039 15.8558 1.53023C16.876 0.510078 18.1023 0 19.5349 0C20.9674 0 22.1938 0.510078 23.214 1.53023C24.2341 2.55039 24.7442 3.77674 24.7442 5.2093C24.7442 6.64186 24.2341 7.86822 23.214 8.88837C22.1938 9.90853 20.9674 10.4186 19.5349 10.4186ZM5.2093 7.81395C5.92558 7.81395 6.53876 7.55891 7.04884 7.04884C7.55891 6.53876 7.81395 5.92558 7.81395 5.2093C7.81395 4.49302 7.55891 3.87985 7.04884 3.36977C6.53876 2.85969 5.92558 2.60465 5.2093 2.60465C4.49302 2.60465 3.87985 2.85969 3.36977 3.36977C2.85969 3.87985 2.60465 4.49302 2.60465 5.2093C2.60465 5.92558 2.85969 6.53876 3.36977 7.04884C3.87985 7.55891 4.49302 7.81395 5.2093 7.81395ZM19.5349 7.81395C20.2512 7.81395 20.8643 7.55891 21.3744 7.04884C21.8845 6.53876 22.1395 5.92558 22.1395 5.2093C22.1395 4.49302 21.8845 3.87985 21.3744 3.36977C20.8643 2.85969 20.2512 2.60465 19.5349 2.60465C18.8186 2.60465 18.2054 2.85969 17.6954 3.36977C17.1853 3.87985 16.9302 4.49302 16.9302 5.2093C16.9302 5.92558 17.1853 6.53876 17.6954 7.04884C18.2054 7.55891 18.8186 7.81395 19.5349 7.81395Z" fill="#1C1B1F"/>
</svg>
