<svg width="39" height="41" viewBox="0 0 39 41" fill="none" xmlns="http://www.w3.org/2000/svg">
<path d="M4.3 11.7143H30.9V7.80952H4.3V11.7143ZM4.3 39.0476C3.255 39.0476 2.36042 38.6653 1.61625 37.9006C0.872083 37.1359 0.5 36.2167 0.5 35.1429V7.80952C0.5 6.73571 0.872083 5.81647 1.61625 5.05179C2.36042 4.2871 3.255 3.90476 4.3 3.90476H6.2V0H10V3.90476H25.2V0H29V3.90476H30.9C31.945 3.90476 32.8396 4.2871 33.5838 5.05179C34.3279 5.81647 34.7 6.73571 34.7 7.80952V18.8893C34.0983 18.5964 33.4808 18.3524 32.8475 18.1571C32.2142 17.9619 31.565 17.8155 30.9 17.7179V15.619H4.3V35.1429H16.27C16.4917 35.8587 16.7529 36.5421 17.0538 37.1929C17.3546 37.8437 17.7108 38.4619 18.1225 39.0476H4.3ZM29 41C26.3717 41 24.1313 40.0482 22.2788 38.1446C20.4263 36.2411 19.5 33.9389 19.5 31.2381C19.5 28.5373 20.4263 26.2351 22.2788 24.3315C24.1313 22.428 26.3717 21.4762 29 21.4762C31.6283 21.4762 33.8687 22.428 35.7212 24.3315C37.5737 26.2351 38.5 28.5373 38.5 31.2381C38.5 33.9389 37.5737 36.2411 35.7212 38.1446C33.8687 40.0482 31.6283 41 29 41ZM32.1825 35.875L33.5125 34.5083L29.95 30.8476V25.381H28.05V31.6286L32.1825 35.875Z" fill="#658FFF"/>
</svg>
