<svg width="18" height="17" viewBox="0 0 18 17" fill="none" xmlns="http://www.w3.org/2000/svg">
<circle cx="9" cy="8.5" r="8" stroke="#A9A9A9"/>
<mask id="path-2-inside-1_10_103" fill="white">
<path d="M13.0025 11.0849C12.3945 11.8077 11.5817 12.3294 10.6713 12.5812C9.76091 12.833 8.79558 12.8031 7.9025 12.4955C7.00941 12.1879 6.23046 11.617 5.66825 10.8579C5.10604 10.0989 4.78696 9.18733 4.75302 8.24336C4.71908 7.29939 4.97189 6.36728 5.47814 5.56982C5.98439 4.77236 6.72033 4.14695 7.58902 3.776C8.45771 3.40504 9.41839 3.30592 10.3445 3.49171C11.2706 3.6775 12.1188 4.13948 12.7772 4.81678L11.5033 6.05505C11.0951 5.63512 10.5693 5.3487 9.9951 5.23351C9.4209 5.11832 8.82528 5.17977 8.28669 5.40977C7.7481 5.63976 7.29182 6.02751 6.97795 6.52193C6.66407 7.01636 6.50733 7.59427 6.52837 8.17953C6.54941 8.76479 6.74725 9.32995 7.09582 9.80056C7.44439 10.2712 7.92734 10.6252 8.48105 10.8159C9.03476 11.0066 9.63326 11.0251 10.1977 10.869C10.7622 10.7129 11.2661 10.3894 11.6431 9.94127L13.0025 11.0849Z"/>
</mask>
<path d="M13.0025 11.0849C12.3945 11.8077 11.5817 12.3294 10.6713 12.5812C9.76091 12.833 8.79558 12.8031 7.9025 12.4955C7.00941 12.1879 6.23046 11.617 5.66825 10.8579C5.10604 10.0989 4.78696 9.18733 4.75302 8.24336C4.71908 7.29939 4.97189 6.36728 5.47814 5.56982C5.98439 4.77236 6.72033 4.14695 7.58902 3.776C8.45771 3.40504 9.41839 3.30592 10.3445 3.49171C11.2706 3.6775 12.1188 4.13948 12.7772 4.81678L11.5033 6.05505C11.0951 5.63512 10.5693 5.3487 9.9951 5.23351C9.4209 5.11832 8.82528 5.17977 8.28669 5.40977C7.7481 5.63976 7.29182 6.02751 6.97795 6.52193C6.66407 7.01636 6.50733 7.59427 6.52837 8.17953C6.54941 8.76479 6.74725 9.32995 7.09582 9.80056C7.44439 10.2712 7.92734 10.6252 8.48105 10.8159C9.03476 11.0066 9.63326 11.0251 10.1977 10.869C10.7622 10.7129 11.2661 10.3894 11.6431 9.94127L13.0025 11.0849Z" stroke="#A9A9A9" stroke-width="2" mask="url(#path-2-inside-1_10_103)"/>
</svg>
