<svg width="45" height="67" viewBox="0 0 45 67" fill="none" xmlns="http://www.w3.org/2000/svg">
<path d="M22.5 66.3691C16.9476 66.3691 12.4167 65.4479 8.90714 63.6054C5.39762 61.7629 3.64286 59.3841 3.64286 56.4691C3.64286 55.1491 4.02262 53.9254 4.78214 52.7979C5.54167 51.6704 6.60238 50.6941 7.96429 49.8691L12.9143 54.7366C12.4429 54.9566 11.9321 55.2041 11.3821 55.4791C10.8321 55.7541 10.4 56.0841 10.0857 56.4691C10.7667 57.3491 12.3381 58.1191 14.8 58.7791C17.2619 59.4391 19.8286 59.7691 22.5 59.7691C25.1714 59.7691 27.7512 59.4391 30.2393 58.7791C32.7274 58.1191 34.3119 57.3491 34.9929 56.4691C34.6262 56.0291 34.1548 55.6716 33.5786 55.3966C33.0024 55.1216 32.4524 54.8741 31.9286 54.6541L36.8 49.7041C38.2667 50.5841 39.3929 51.5879 40.1786 52.7154C40.9643 53.8429 41.3571 55.0941 41.3571 56.4691C41.3571 59.3841 39.6024 61.7629 36.0929 63.6054C32.5833 65.4479 28.0524 66.3691 22.5 66.3691ZM22.5786 48.2191C27.7643 44.2041 31.6667 40.1754 34.2857 36.1329C36.9048 32.0904 38.2143 28.0341 38.2143 23.9641C38.2143 18.3541 36.5119 14.1191 33.1071 11.2591C29.7024 8.39914 26.1667 6.96914 22.5 6.96914C18.8333 6.96914 15.2976 8.39914 11.8929 11.2591C8.4881 14.1191 6.78571 18.3541 6.78571 23.9641C6.78571 27.6491 8.06905 31.4854 10.6357 35.4729C13.2024 39.4604 17.1833 43.7091 22.5786 48.2191ZM22.5 56.4691C15.1143 50.7491 9.60119 45.1941 5.96071 39.8041C2.32024 34.4141 0.5 29.1341 0.5 23.9641C0.5 20.0591 1.16786 16.6354 2.50357 13.6929C3.83929 10.7504 5.55476 8.28914 7.65 6.30914C9.74524 4.32914 12.1024 2.84414 14.7214 1.85414C17.3405 0.864141 19.9333 0.369141 22.5 0.369141C25.0667 0.369141 27.6595 0.864141 30.2786 1.85414C32.8976 2.84414 35.2548 4.32914 37.35 6.30914C39.4452 8.28914 41.1607 10.7504 42.4964 13.6929C43.8321 16.6354 44.5 20.0591 44.5 23.9641C44.5 29.1341 42.6798 34.4141 39.0393 39.8041C35.3988 45.1941 29.8857 50.7491 22.5 56.4691ZM22.5 30.0691C24.2286 30.0691 25.7083 29.4229 26.9393 28.1304C28.1702 26.8379 28.7857 25.2841 28.7857 23.4691C28.7857 21.6541 28.1702 20.1004 26.9393 18.8079C25.7083 17.5154 24.2286 16.8691 22.5 16.8691C20.7714 16.8691 19.2917 17.5154 18.0607 18.8079C16.8298 20.1004 16.2143 21.6541 16.2143 23.4691C16.2143 25.2841 16.8298 26.8379 18.0607 28.1304C19.2917 29.4229 20.7714 30.0691 22.5 30.0691Z" fill="#658FFF"/>
</svg>
