<svg width="26" height="26" viewBox="0 0 26 26" fill="none" xmlns="http://www.w3.org/2000/svg">
<path d="M12.049 1.20244C12.3483 0.281131 13.6517 0.281131 13.9511 1.20244L16.3058 8.44952C16.4397 8.86154 16.8236 9.1405 17.2568 9.1405L24.8769 9.1405C25.8456 9.1405 26.2484 10.3801 25.4647 10.9495L19.2999 15.4285C18.9494 15.6831 18.8028 16.1345 18.9367 16.5465L21.2914 23.7936C21.5907 24.7149 20.5362 25.481 19.7525 24.9116L13.5878 20.4327C13.2373 20.178 12.7627 20.178 12.4122 20.4327L6.2475 24.9116C5.46378 25.481 4.4093 24.7149 4.70866 23.7936L7.06338 16.5465C7.19725 16.1345 7.05059 15.6831 6.7001 15.4285L0.535371 10.9495C-0.248343 10.3801 0.154433 9.1405 1.12316 9.1405L8.74319 9.1405C9.17641 9.1405 9.56037 8.86154 9.69424 8.44952L12.049 1.20244Z" fill="#2B293D"/>
</svg>
