<svg width="75" height="75" viewBox="0 0 75 75" fill="none" xmlns="http://www.w3.org/2000/svg">
<path d="M37.0958 59.5471C38.3947 59.5471 39.4925 59.0987 40.3893 58.2019C41.2861 57.3051 41.7345 56.2073 41.7345 54.9084C41.7345 53.6096 41.2861 52.5118 40.3893 51.615C39.4925 50.7182 38.3947 50.2698 37.0958 50.2698C35.797 50.2698 34.6992 50.7182 33.8024 51.615C32.9056 52.5118 32.4572 53.6096 32.4572 54.9084C32.4572 56.2073 32.9056 57.3051 33.8024 58.2019C34.6992 59.0987 35.797 59.5471 37.0958 59.5471ZM33.756 45.26H40.6212C40.6212 43.219 40.8532 41.6109 41.317 40.4358C41.7809 39.2607 43.0952 37.6526 45.2599 35.6116C46.868 34.0035 48.1359 32.4727 49.0636 31.0193C49.9913 29.5658 50.4552 27.8186 50.4552 25.7776C50.4552 22.314 49.1873 19.6545 46.6515 17.7991C44.1157 15.9436 41.116 15.0159 37.6525 15.0159C34.1271 15.0159 31.2666 15.9436 29.0709 17.7991C26.8753 19.6545 25.3445 21.8811 24.4786 24.4788L30.6017 26.8909C30.9109 25.7776 31.6067 24.5715 32.6891 23.2727C33.7714 21.9739 35.4259 21.3245 37.6525 21.3245C39.6316 21.3245 41.116 21.8656 42.1056 22.948C43.0952 24.0304 43.59 25.2209 43.59 26.5198C43.59 27.7568 43.2189 28.9164 42.4767 29.9988C41.7345 31.0811 40.8068 32.0862 39.6935 33.0139C36.9721 35.426 35.3022 37.2506 34.6837 38.4875C34.0652 39.7245 33.756 41.982 33.756 45.26ZM37.2814 74.3909C32.1479 74.3909 27.3237 73.4167 22.8087 71.4685C18.2937 69.5203 14.3663 66.8762 11.0265 63.5364C7.68665 60.1965 5.0426 56.2691 3.09436 51.7542C1.14612 47.2392 0.171997 42.415 0.171997 37.2815C0.171997 32.148 1.14612 27.3238 3.09436 22.8088C5.0426 18.2939 7.68665 14.3665 11.0265 11.0266C14.3663 7.68677 18.2937 5.04272 22.8087 3.09448C27.3237 1.14624 32.1479 0.172119 37.2814 0.172119C42.4148 0.172119 47.2391 1.14624 51.754 3.09448C56.269 5.04272 60.1964 7.68677 63.5363 11.0266C66.8761 14.3665 69.5201 18.2939 71.4684 22.8088C73.4166 27.3238 74.3907 32.148 74.3907 37.2815C74.3907 42.415 73.4166 47.2392 71.4684 51.7542C69.5201 56.2691 66.8761 60.1965 63.5363 63.5364C60.1964 66.8762 56.269 69.5203 51.754 71.4685C47.2391 73.4167 42.4148 74.3909 37.2814 74.3909ZM37.2814 66.969C45.5691 66.969 52.589 64.093 58.3409 58.3411C64.0929 52.5891 66.9689 45.5693 66.9689 37.2815C66.9689 28.9937 64.0929 21.9739 58.3409 16.2219C52.589 10.47 45.5691 7.59399 37.2814 7.59399C28.9936 7.59399 21.9738 10.47 16.2218 16.2219C10.4698 21.9739 7.59387 28.9937 7.59387 37.2815C7.59387 45.5693 10.4698 52.5891 16.2218 58.3411C21.9738 64.093 28.9936 66.969 37.2814 66.969Z" fill="white"/>
</svg>
