<svg width="75" height="60" viewBox="0 0 75 60" fill="none" xmlns="http://www.w3.org/2000/svg">
<path d="M26.8906 45.125L37.2812 37.332L47.4863 45.125L43.5898 32.5078L53.9805 24.3438H41.3633L37.2812 11.7266L33.1992 24.3438H20.582L30.7871 32.5078L26.8906 45.125ZM7.59375 59.9688C5.55273 59.9688 3.8055 59.242 2.35205 57.7886C0.8986 56.3351 0.171875 54.5879 0.171875 52.5469V40.0225C0.171875 39.3421 0.388346 38.7546 0.821289 38.2598C1.25423 37.765 1.81087 37.4557 2.49121 37.332C3.97559 36.8372 5.1971 35.9404 6.15576 34.6416C7.11442 33.3428 7.59375 31.8893 7.59375 30.2812C7.59375 28.6732 7.11442 27.2197 6.15576 25.9209C5.1971 24.6221 3.97559 23.7253 2.49121 23.2305C1.81087 23.1068 1.25423 22.7975 0.821289 22.3027C0.388346 21.8079 0.171875 21.2204 0.171875 20.54V8.01562C0.171875 5.97461 0.8986 4.22738 2.35205 2.77393C3.8055 1.32048 5.55273 0.59375 7.59375 0.59375H66.9688C69.0098 0.59375 70.757 1.32048 72.2104 2.77393C73.6639 4.22738 74.3906 5.97461 74.3906 8.01562V20.54C74.3906 21.2204 74.1742 21.8079 73.7412 22.3027C73.3083 22.7975 72.7516 23.1068 72.0713 23.2305C70.5869 23.7253 69.3654 24.6221 68.4067 25.9209C67.4481 27.2197 66.9688 28.6732 66.9688 30.2812C66.9688 31.8893 67.4481 33.3428 68.4067 34.6416C69.3654 35.9404 70.5869 36.8372 72.0713 37.332C72.7516 37.4557 73.3083 37.765 73.7412 38.2598C74.1742 38.7546 74.3906 39.3421 74.3906 40.0225V52.5469C74.3906 54.5879 73.6639 56.3351 72.2104 57.7886C70.757 59.242 69.0098 59.9688 66.9688 59.9688H7.59375ZM7.59375 52.5469H66.9688V43.084C64.6803 41.7233 62.8713 39.9142 61.5415 37.6567C60.2118 35.3993 59.5469 32.9408 59.5469 30.2812C59.5469 27.6217 60.2118 25.1632 61.5415 22.9058C62.8713 20.6483 64.6803 18.8392 66.9688 17.4785V8.01562H7.59375V17.4785C9.88216 18.8392 11.6912 20.6483 13.021 22.9058C14.3507 25.1632 15.0156 27.6217 15.0156 30.2812C15.0156 32.9408 14.3507 35.3993 13.021 37.6567C11.6912 39.9142 9.88216 41.7233 7.59375 43.084V52.5469Z" fill="white"/>
</svg>
