<svg width="286" height="54" viewBox="0 0 286 54" fill="none" xmlns="http://www.w3.org/2000/svg">
<path d="M74.276 40.3242C73.604 40.3242 73.052 40.1682 72.62 39.8562C72.212 39.5442 71.948 39.1242 71.828 38.5962C71.732 38.0682 71.84 37.4802 72.152 36.8322L81.368 16.6362C81.752 15.8202 82.208 15.2322 82.736 14.8722C83.264 14.4882 83.876 14.2962 84.572 14.2962C85.268 14.2962 85.88 14.4882 86.408 14.8722C86.936 15.2322 87.38 15.8202 87.74 16.6362L97.028 36.8322C97.34 37.4802 97.448 38.0802 97.352 38.6322C97.28 39.1602 97.04 39.5802 96.632 39.8922C96.224 40.1802 95.696 40.3242 95.048 40.3242C94.232 40.3242 93.596 40.1322 93.14 39.7482C92.708 39.3642 92.324 38.7642 91.988 37.9482L89.828 32.9442L92.06 34.4922H77.048L79.28 32.9442L77.156 37.9482C76.796 38.7882 76.412 39.4002 76.004 39.7842C75.62 40.1442 75.044 40.3242 74.276 40.3242ZM84.5 20.5602L79.892 31.5402L78.92 30.1362H90.188L89.216 31.5402L84.572 20.5602H84.5ZM108.272 40.3962C106.616 40.3962 105.224 40.1202 104.096 39.5682C102.992 39.0162 102.164 38.2122 101.612 37.1562C101.084 36.1002 100.82 34.7682 100.82 33.1602V26.3922H99.3078C98.6358 26.3922 98.1078 26.2122 97.7238 25.8522C97.3638 25.4922 97.1838 25.0002 97.1838 24.3762C97.1838 23.7042 97.3638 23.2002 97.7238 22.8642C98.1078 22.5042 98.6358 22.3242 99.3078 22.3242H100.82V19.5882C100.82 18.6762 101.06 17.9922 101.54 17.5362C102.02 17.0562 102.692 16.8162 103.556 16.8162C104.444 16.8162 105.116 17.0562 105.572 17.5362C106.028 17.9922 106.256 18.6762 106.256 19.5882V22.3242H109.676C110.348 22.3242 110.864 22.5042 111.224 22.8642C111.584 23.2002 111.764 23.7042 111.764 24.3762C111.764 25.0002 111.584 25.4922 111.224 25.8522C110.864 26.2122 110.348 26.3922 109.676 26.3922H106.256V32.9442C106.256 33.9522 106.484 34.7082 106.94 35.2122C107.42 35.7162 108.176 35.9682 109.208 35.9682C109.568 35.9682 109.904 35.9322 110.216 35.8602C110.528 35.7882 110.816 35.7402 111.08 35.7162C111.416 35.6922 111.692 35.8002 111.908 36.0402C112.124 36.2562 112.232 36.7482 112.232 37.5162C112.232 38.0922 112.136 38.5962 111.944 39.0282C111.752 39.4602 111.416 39.7722 110.936 39.9642C110.624 40.0842 110.192 40.1802 109.64 40.2522C109.112 40.3482 108.656 40.3962 108.272 40.3962ZM121.085 40.3962C118.949 40.3962 117.353 39.8082 116.297 38.6322C115.241 37.4322 114.713 35.6562 114.713 33.3042V17.0682C114.713 16.1562 114.941 15.4722 115.397 15.0162C115.877 14.5362 116.561 14.2962 117.449 14.2962C118.313 14.2962 118.973 14.5362 119.429 15.0162C119.909 15.4722 120.149 16.1562 120.149 17.0682V33.0882C120.149 34.0722 120.353 34.8042 120.761 35.2842C121.193 35.7402 121.757 35.9682 122.453 35.9682C122.645 35.9682 122.825 35.9562 122.993 35.9322C123.161 35.9082 123.341 35.8962 123.533 35.8962C123.917 35.8482 124.181 35.9682 124.325 36.2562C124.493 36.5202 124.577 37.0602 124.577 37.8762C124.577 38.5962 124.433 39.1482 124.145 39.5322C123.857 39.8922 123.413 40.1322 122.813 40.2522C122.573 40.2762 122.297 40.3002 121.985 40.3242C121.673 40.3722 121.373 40.3962 121.085 40.3962ZM132.677 40.3962C131.381 40.3962 130.217 40.1442 129.185 39.6402C128.153 39.1362 127.349 38.4522 126.773 37.5882C126.197 36.7242 125.909 35.7522 125.909 34.6722C125.909 33.3762 126.245 32.3562 126.917 31.6122C127.589 30.8442 128.681 30.3042 130.193 29.9922C131.705 29.6562 133.709 29.4882 136.205 29.4882H138.113V32.2962H136.241C135.017 32.2962 134.021 32.3682 133.253 32.5122C132.509 32.6322 131.969 32.8482 131.633 33.1602C131.321 33.4722 131.165 33.9042 131.165 34.4562C131.165 35.1282 131.393 35.6802 131.849 36.1122C132.329 36.5442 133.013 36.7602 133.901 36.7602C134.597 36.7602 135.209 36.6042 135.737 36.2922C136.289 35.9562 136.721 35.5122 137.033 34.9602C137.345 34.3842 137.501 33.7362 137.501 33.0162V28.8762C137.501 27.8202 137.261 27.0762 136.781 26.6442C136.301 26.1882 135.485 25.9602 134.333 25.9602C133.685 25.9602 132.977 26.0442 132.209 26.2122C131.465 26.3562 130.637 26.6082 129.725 26.9682C129.197 27.2082 128.729 27.2682 128.321 27.1482C127.913 27.0042 127.601 26.7642 127.385 26.4282C127.169 26.0682 127.061 25.6842 127.061 25.2762C127.061 24.8442 127.181 24.4362 127.421 24.0522C127.661 23.6442 128.057 23.3442 128.609 23.1522C129.737 22.6962 130.793 22.3842 131.777 22.2162C132.785 22.0482 133.709 21.9642 134.549 21.9642C136.397 21.9642 137.909 22.2402 139.085 22.7922C140.285 23.3202 141.185 24.1482 141.785 25.2762C142.385 26.3802 142.685 27.8082 142.685 29.5602V37.5522C142.685 38.4402 142.469 39.1242 142.037 39.6042C141.605 40.0842 140.981 40.3242 140.165 40.3242C139.349 40.3242 138.713 40.0842 138.257 39.6042C137.825 39.1242 137.609 38.4402 137.609 37.5522V36.2202L137.861 36.4362C137.717 37.2522 137.405 37.9602 136.925 38.5602C136.469 39.1362 135.881 39.5922 135.161 39.9282C134.441 40.2402 133.613 40.3962 132.677 40.3962ZM153.508 40.3962C152.452 40.3962 151.36 40.3002 150.232 40.1082C149.128 39.9162 148.12 39.5922 147.208 39.1362C146.728 38.8962 146.38 38.5962 146.164 38.2362C145.972 37.8522 145.888 37.4682 145.912 37.0842C145.936 36.7002 146.056 36.3522 146.272 36.0402C146.512 35.7282 146.812 35.5242 147.172 35.4282C147.556 35.3082 147.976 35.3442 148.432 35.5362C149.416 35.9442 150.316 36.2322 151.132 36.4002C151.948 36.5682 152.752 36.6522 153.544 36.6522C154.576 36.6522 155.32 36.4962 155.776 36.1842C156.256 35.8482 156.496 35.4162 156.496 34.8882C156.496 34.4082 156.34 34.0482 156.028 33.8082C155.716 33.5682 155.26 33.4002 154.66 33.3042L150.88 32.6202C149.392 32.3562 148.24 31.8162 147.424 31.0002C146.632 30.1602 146.236 29.0922 146.236 27.7962C146.236 26.5962 146.572 25.5642 147.244 24.7002C147.916 23.8122 148.84 23.1402 150.016 22.6842C151.216 22.2042 152.572 21.9642 154.084 21.9642C155.164 21.9642 156.16 22.0602 157.072 22.2522C157.984 22.4442 158.86 22.7562 159.7 23.1882C160.132 23.4042 160.432 23.6922 160.6 24.0522C160.792 24.4122 160.852 24.7842 160.78 25.1682C160.732 25.5522 160.588 25.9002 160.348 26.2122C160.108 26.5242 159.796 26.7282 159.412 26.8242C159.052 26.9202 158.632 26.8722 158.152 26.6802C157.384 26.3202 156.676 26.0682 156.028 25.9242C155.38 25.7562 154.756 25.6722 154.156 25.6722C153.076 25.6722 152.296 25.8522 151.816 26.2122C151.336 26.5482 151.096 26.9802 151.096 27.5082C151.096 27.9162 151.228 28.2642 151.492 28.5522C151.78 28.8162 152.212 28.9962 152.788 29.0922L156.568 29.7762C158.128 30.0402 159.316 30.5682 160.132 31.3602C160.948 32.1282 161.356 33.1842 161.356 34.5282C161.356 36.3522 160.636 37.7922 159.196 38.8482C157.78 39.8802 155.884 40.3962 153.508 40.3962ZM177.898 40.0002C176.962 40.0002 176.242 39.7482 175.738 39.2442C175.234 38.7402 174.982 38.0202 174.982 37.0842V17.5362C174.982 16.6002 175.234 15.8802 175.738 15.3762C176.242 14.8722 176.962 14.6202 177.898 14.6202H190.462C191.182 14.6202 191.722 14.8122 192.082 15.1962C192.466 15.5562 192.658 16.0842 192.658 16.7802C192.658 17.5002 192.466 18.0522 192.082 18.4362C191.722 18.7962 191.182 18.9762 190.462 18.9762H180.31V24.9162H189.634C190.378 24.9162 190.93 25.1082 191.29 25.4922C191.674 25.8522 191.866 26.3922 191.866 27.1122C191.866 27.8322 191.674 28.3842 191.29 28.7682C190.93 29.1282 190.378 29.3082 189.634 29.3082H180.31V35.6442H190.462C191.182 35.6442 191.722 35.8362 192.082 36.2202C192.466 36.5802 192.658 37.1082 192.658 37.8042C192.658 38.5242 192.466 39.0762 192.082 39.4602C191.722 39.8202 191.182 40.0002 190.462 40.0002H177.898ZM203.553 40.3242C202.857 40.3242 202.245 40.1442 201.717 39.7842C201.189 39.4002 200.769 38.8362 200.457 38.0922L195.021 25.5642C194.757 24.9402 194.661 24.3642 194.733 23.8362C194.805 23.2842 195.057 22.8522 195.489 22.5402C195.945 22.2042 196.569 22.0362 197.361 22.0362C198.009 22.0362 198.537 22.1922 198.945 22.5042C199.353 22.7922 199.713 23.3562 200.025 24.1962L204.273 34.9962H203.121L207.549 24.1602C207.885 23.3442 208.257 22.7922 208.665 22.5042C209.073 22.1922 209.637 22.0362 210.357 22.0362C210.981 22.0362 211.473 22.2042 211.833 22.5402C212.217 22.8522 212.445 23.2722 212.517 23.8002C212.613 24.3282 212.517 24.9042 212.229 25.5282L206.685 38.0922C206.373 38.8602 205.953 39.4242 205.425 39.7842C204.921 40.1442 204.297 40.3242 203.553 40.3242ZM224.053 40.3962C221.965 40.3962 220.165 40.0242 218.653 39.2802C217.165 38.5122 216.013 37.4442 215.197 36.0762C214.405 34.6842 214.009 33.0522 214.009 31.1802C214.009 29.3562 214.393 27.7602 215.161 26.3922C215.929 25.0002 216.997 23.9202 218.365 23.1522C219.757 22.3602 221.329 21.9642 223.081 21.9642C224.353 21.9642 225.505 22.1802 226.537 22.6122C227.569 23.0202 228.457 23.6202 229.201 24.4122C229.945 25.1802 230.509 26.1282 230.893 27.2562C231.277 28.3602 231.469 29.5962 231.469 30.9642C231.469 31.4202 231.325 31.7682 231.037 32.0082C230.749 32.2242 230.329 32.3322 229.777 32.3322H218.473V29.5242H227.545L226.969 30.0282C226.969 29.0442 226.825 28.2282 226.537 27.5802C226.249 26.9082 225.829 26.4042 225.277 26.0682C224.749 25.7322 224.089 25.5642 223.297 25.5642C222.409 25.5642 221.653 25.7682 221.029 26.1762C220.405 26.5842 219.925 27.1722 219.589 27.9402C219.253 28.7082 219.085 29.6322 219.085 30.7122V31.0002C219.085 32.8242 219.505 34.1682 220.345 35.0322C221.209 35.8962 222.481 36.3282 224.161 36.3282C224.737 36.3282 225.397 36.2562 226.141 36.1122C226.885 35.9682 227.581 35.7402 228.229 35.4282C228.781 35.1642 229.273 35.0802 229.705 35.1762C230.137 35.2482 230.473 35.4402 230.713 35.7522C230.953 36.0642 231.085 36.4242 231.109 36.8322C231.157 37.2402 231.073 37.6482 230.857 38.0562C230.641 38.4402 230.281 38.7642 229.777 39.0282C228.961 39.4842 228.037 39.8202 227.005 40.0362C225.997 40.2762 225.013 40.3962 224.053 40.3962ZM237.367 40.3242C236.479 40.3242 235.795 40.0842 235.315 39.6042C234.859 39.1242 234.631 38.4402 234.631 37.5522V24.7722C234.631 23.8842 234.859 23.2122 235.315 22.7562C235.795 22.2762 236.455 22.0362 237.295 22.0362C238.159 22.0362 238.819 22.2762 239.275 22.7562C239.731 23.2122 239.959 23.8842 239.959 24.7722V26.8242L239.563 25.6362C240.115 24.4602 240.931 23.5602 242.011 22.9362C243.115 22.2882 244.363 21.9642 245.755 21.9642C247.171 21.9642 248.335 22.2402 249.247 22.7922C250.159 23.3202 250.843 24.1362 251.299 25.2402C251.755 26.3202 251.983 27.7002 251.983 29.3802V37.5522C251.983 38.4402 251.743 39.1242 251.263 39.6042C250.807 40.0842 250.135 40.3242 249.247 40.3242C248.383 40.3242 247.711 40.0842 247.231 39.6042C246.775 39.1242 246.547 38.4402 246.547 37.5522V29.6322C246.547 28.4082 246.319 27.5322 245.863 27.0042C245.431 26.4522 244.759 26.1762 243.847 26.1762C242.695 26.1762 241.771 26.5362 241.075 27.2562C240.403 27.9762 240.067 28.9362 240.067 30.1362V37.5522C240.067 39.4002 239.167 40.3242 237.367 40.3242ZM264.717 40.3962C263.061 40.3962 261.669 40.1202 260.541 39.5682C259.437 39.0162 258.609 38.2122 258.057 37.1562C257.529 36.1002 257.265 34.7682 257.265 33.1602V26.3922H255.753C255.081 26.3922 254.553 26.2122 254.169 25.8522C253.809 25.4922 253.629 25.0002 253.629 24.3762C253.629 23.7042 253.809 23.2002 254.169 22.8642C254.553 22.5042 255.081 22.3242 255.753 22.3242H257.265V19.5882C257.265 18.6762 257.505 17.9922 257.985 17.5362C258.465 17.0562 259.137 16.8162 260.001 16.8162C260.889 16.8162 261.561 17.0562 262.017 17.5362C262.473 17.9922 262.701 18.6762 262.701 19.5882V22.3242H266.121C266.793 22.3242 267.309 22.5042 267.669 22.8642C268.029 23.2002 268.209 23.7042 268.209 24.3762C268.209 25.0002 268.029 25.4922 267.669 25.8522C267.309 26.2122 266.793 26.3922 266.121 26.3922H262.701V32.9442C262.701 33.9522 262.929 34.7082 263.385 35.2122C263.865 35.7162 264.621 35.9682 265.653 35.9682C266.013 35.9682 266.349 35.9322 266.661 35.8602C266.973 35.7882 267.261 35.7402 267.525 35.7162C267.861 35.6922 268.137 35.8002 268.353 36.0402C268.569 36.2562 268.677 36.7482 268.677 37.5162C268.677 38.0922 268.581 38.5962 268.389 39.0282C268.197 39.4602 267.861 39.7722 267.381 39.9642C267.069 40.0842 266.637 40.1802 266.085 40.2522C265.557 40.3482 265.101 40.3962 264.717 40.3962ZM277.364 40.3962C276.308 40.3962 275.216 40.3002 274.088 40.1082C272.984 39.9162 271.976 39.5922 271.064 39.1362C270.584 38.8962 270.236 38.5962 270.02 38.2362C269.828 37.8522 269.744 37.4682 269.768 37.0842C269.792 36.7002 269.912 36.3522 270.128 36.0402C270.368 35.7282 270.668 35.5242 271.028 35.4282C271.412 35.3082 271.832 35.3442 272.288 35.5362C273.272 35.9442 274.172 36.2322 274.988 36.4002C275.804 36.5682 276.608 36.6522 277.4 36.6522C278.432 36.6522 279.176 36.4962 279.632 36.1842C280.112 35.8482 280.352 35.4162 280.352 34.8882C280.352 34.4082 280.196 34.0482 279.884 33.8082C279.572 33.5682 279.116 33.4002 278.516 33.3042L274.736 32.6202C273.248 32.3562 272.096 31.8162 271.28 31.0002C270.488 30.1602 270.092 29.0922 270.092 27.7962C270.092 26.5962 270.428 25.5642 271.1 24.7002C271.772 23.8122 272.696 23.1402 273.872 22.6842C275.072 22.2042 276.428 21.9642 277.94 21.9642C279.02 21.9642 280.016 22.0602 280.928 22.2522C281.84 22.4442 282.716 22.7562 283.556 23.1882C283.988 23.4042 284.288 23.6922 284.456 24.0522C284.648 24.4122 284.708 24.7842 284.636 25.1682C284.588 25.5522 284.444 25.9002 284.204 26.2122C283.964 26.5242 283.652 26.7282 283.268 26.8242C282.908 26.9202 282.488 26.8722 282.008 26.6802C281.24 26.3202 280.532 26.0682 279.884 25.9242C279.236 25.7562 278.612 25.6722 278.012 25.6722C276.932 25.6722 276.152 25.8522 275.672 26.2122C275.192 26.5482 274.952 26.9802 274.952 27.5082C274.952 27.9162 275.084 28.2642 275.348 28.5522C275.636 28.8162 276.068 28.9962 276.644 29.0922L280.424 29.7762C281.984 30.0402 283.172 30.5682 283.988 31.3602C284.804 32.1282 285.212 33.1842 285.212 34.5282C285.212 36.3522 284.492 37.7922 283.052 38.8482C281.636 39.8802 279.74 40.3962 277.364 40.3962Z" fill="#658FFF"/>
<path d="M47.3921 25.123C43.203 20.8274 36.7262 20.3925 34.0114 20.712L34.8249 12.2363C38.3602 12.2807 46.8969 13.8729 52.7615 19.8867C58.6262 25.9005 59.2818 35.644 58.8765 39.764L52.513 39.6841C52.5515 36.6202 51.5811 29.4186 47.3921 25.123Z" fill="#658FFF" stroke="#658FFF"/>
<circle cx="38.434" cy="34.557" r="9.5" transform="rotate(45.7192 38.434 34.557)" fill="#658FFF"/>
</svg>
