<svg width="74" height="68" viewBox="0 0 74 68" fill="none" xmlns="http://www.w3.org/2000/svg">
<path d="M60.3333 19.0001C61.2778 19.0001 62.0694 18.6806 62.7083 18.0417C63.3472 17.4029 63.6666 16.6112 63.6666 15.6667C63.6666 14.7223 63.3472 13.9306 62.7083 13.2917C62.0694 12.6529 61.2778 12.3334 60.3333 12.3334C59.3889 12.3334 58.5972 12.6529 57.9583 13.2917C57.3194 13.9306 57 14.7223 57 15.6667C57 16.6112 57.3194 17.4029 57.9583 18.0417C58.5972 18.6806 59.3889 19.0001 60.3333 19.0001ZM47 19.0001C47.9444 19.0001 48.7361 18.6806 49.375 18.0417C50.0139 17.4029 50.3333 16.6112 50.3333 15.6667C50.3333 14.7223 50.0139 13.9306 49.375 13.2917C48.7361 12.6529 47.9444 12.3334 47 12.3334C46.0555 12.3334 45.2639 12.6529 44.625 13.2917C43.9861 13.9306 43.6666 14.7223 43.6666 15.6667C43.6666 16.6112 43.9861 17.4029 44.625 18.0417C45.2639 18.6806 46.0555 19.0001 47 19.0001ZM45.3333 30.3334H62C62 28.389 61.1528 26.8473 59.4583 25.7084C57.7639 24.5695 55.8333 24.0001 53.6666 24.0001C51.5 24.0001 49.5694 24.5695 47.875 25.7084C46.1805 26.8473 45.3333 28.389 45.3333 30.3334ZM20.3333 67.3334C14.7778 67.3334 10.0555 65.389 6.16665 61.5001C2.27776 57.6112 0.333313 52.889 0.333313 47.3334V24.0001H40.3333V47.3334C40.3333 52.889 38.3889 57.6112 34.5 61.5001C30.6111 65.389 25.8889 67.3334 20.3333 67.3334ZM20.3333 60.6667C24 60.6667 27.1389 59.3612 29.75 56.7501C32.3611 54.139 33.6666 51.0001 33.6666 47.3334V30.6667H6.99998V47.3334C6.99998 51.0001 8.30554 54.139 10.9166 56.7501C13.5278 59.3612 16.6666 60.6667 20.3333 60.6667ZM53.6666 44.0001C52.2222 44.0001 50.7916 43.8473 49.375 43.5417C47.9583 43.2362 46.6111 42.7779 45.3333 42.1667V34.3334C46.5555 35.2779 47.875 36.014 49.2916 36.5417C50.7083 37.0695 52.1666 37.3334 53.6666 37.3334C57.3333 37.3334 60.4722 36.0279 63.0833 33.4167C65.6944 30.8056 67 27.6667 67 24.0001V7.33341H40.3333V19.0001H33.6666V0.666748H73.6666V24.0001C73.6666 29.5556 71.7222 34.2779 67.8333 38.1667C63.9444 42.0556 59.2222 44.0001 53.6666 44.0001ZM13.6666 42.3334C14.6111 42.3334 15.4028 42.014 16.0416 41.3751C16.6805 40.7362 17 39.9445 17 39.0001C17 38.0556 16.6805 37.264 16.0416 36.6251C15.4028 35.9862 14.6111 35.6667 13.6666 35.6667C12.7222 35.6667 11.9305 35.9862 11.2916 36.6251C10.6528 37.264 10.3333 38.0556 10.3333 39.0001C10.3333 39.9445 10.6528 40.7362 11.2916 41.3751C11.9305 42.014 12.7222 42.3334 13.6666 42.3334ZM27 42.3334C27.9444 42.3334 28.7361 42.014 29.375 41.3751C30.0139 40.7362 30.3333 39.9445 30.3333 39.0001C30.3333 38.0556 30.0139 37.264 29.375 36.6251C28.7361 35.9862 27.9444 35.6667 27 35.6667C26.0555 35.6667 25.2639 35.9862 24.625 36.6251C23.9861 37.264 23.6666 38.0556 23.6666 39.0001C23.6666 39.9445 23.9861 40.7362 24.625 41.3751C25.2639 42.014 26.0555 42.3334 27 42.3334ZM20.3333 53.6667C22.5 53.6667 24.4305 53.0973 26.125 51.9584C27.8194 50.8195 28.6666 49.2779 28.6666 47.3334H12C12 49.2779 12.8472 50.8195 14.5416 51.9584C16.2361 53.0973 18.1666 53.6667 20.3333 53.6667Z" fill="#1C1B1F"/>
</svg>
